:SAMPLES-PER-SECOND 30
:FULLY-SPECIFIED
:DEGREES
137
root  -38.0086 38.5778 9.13959 -30.3229 -73.0727 28.6489
RightUpLeg  -15.4562 -16.5318 -10.0201
RightLeg  37.2143 -6.20682 -5.30015
RightFoot  -17.3388 -0.15133 -0.649349
RightToes  -1.81608e-008 0 -3.6325e-017
Spine  10.3866 -3.2417 -3.9893
Spine1  0.532544 -4.77452 5.8591
HEad  3.2289 -8.64368 -5.4965
LeftShoulder1  -0.624181 5.16511 -31.4242
LeftArm  -11.0271 6.2115 -36.7195
LeftForeArm  18.2127 -15.9709 -4.09957
LeftHand  -0.0180458 5.76078 3.22548
RightShoulder  -0.806779 -6.03923 25.1819
RightArm  8.39317 2.02156 41.9524
RightForeArm  5.49977 18.1361 4.18689
RightHand  -0.382468 4.23771 -4.87585
LeftUpLeg  -10.8209 11.8995 12.6778
LeftLeg  -2.53784 5.21481 -0.814339
LeftFoot  4.03303 2.2698 -16.8944
LeftToes  1.81866e-011 -6.13092e-011 2.52013e-011
138
root  -38.4085 38.4776 8.97041 -31.4244 -73.7965 28.8384
RightUpLeg  -14.2124 -16.3611 -9.65668
RightLeg  37.8432 -5.81255 -5.09252
RightFoot  -18.5922 -0.186878 -0.959097
RightToes  -1.81608e-008 0 -3.6325e-017
Spine  10.4911 -3.07563 -3.38325
Spine1  0.549509 -4.41191 5.00231
HEad  4.38975 -8.38369 -5.61576
LeftShoulder1  -0.686418 5.33509 -31.3276
LeftArm  -10.9175 6.85083 -36.0192
LeftForeArm  18.3997 -16.2895 -4.06579
LeftHand  -0.0281244 5.29324 3.64173
RightShoulder  -0.865925 -6.18949 25.6389
RightArm  10.4588 1.6269 43.0715
RightForeArm  5.66961 18.933 4.3328
RightHand  -0.303972 2.72266 -4.55137
LeftUpLeg  -12.1328 11.7414 12.3116
LeftLeg  -2.26929 5.58265 -0.875492
LeftFoot  4.11226 2.27759 -16.8688
LeftToes  1.81866e-011 -6.13092e-011 2.52013e-011
139
root  -38.7898 38.3466 8.83946 -33.03 -74.6468 29.3625
RightUpLeg  -12.8919 -16.3379 -9.44425
RightLeg  38.628 -5.17927 -4.69669
RightFoot  -19.883 -0.235151 -1.35245
RightToes  -1.81608e-008 0 -3.6325e-017
Spine  10.7849 -2.96471 -2.89634
Spine1  0.985549 -4.14897 4.22165
HEad  4.97459 -7.86435 -5.66688
LeftShoulder1  -0.651391 5.24299 -31.2975
LeftArm  -11.1743 7.66114 -35.5302
LeftForeArm  18.4115 -16.6809 -3.95729
LeftHand  -0.0240137 5.47697 3.29826
RightShoulder  -0.868436 -6.18747 25.7514
RightArm  12.9085 1.18476 44.3334
RightForeArm  4.80528 19.2655 4.52329
RightHand  -0.389372 3.8265 -5.1697
LeftUpLeg  -13.0244 11.6618 12.0391
LeftLeg  -2.30088 5.68038 -1.00379
LeftFoot  4.46461 2.30659 -16.712
LeftToes  1.81866e-011 -6.13092e-011 2.52013e-011
140
root  -39.1606 38.1691 8.75379 -36.1344 -75.8704 31.4963
RightUpLeg  -11.9697 -15.5627 -9.3193
RightLeg  39.8269 -4.71493 -4.48192
RightFoot  -21.2371 -0.268218 -1.43731
RightToes  -1.81608e-008 0 -3.6325e-017
Spine  11.0674 -2.73624 -2.0403
Spine1  1.51807 -3.60012 2.76715
HEad  5.63659 -7.36986 -5.4523
LeftShoulder1  -0.635428 5.21372 -31.0071
LeftArm  -10.9884 7.92821 -35.1703
LeftForeArm  18.1134 -16.1976 -4.05504
LeftHand  -0.0236406 5.42528 4.07055
RightShoulder  -0.91551 -6.27743 26.4272
RightArm  15.3935 0.410874 45.0145
RightForeArm  5.14607 19.7309 4.60914
RightHand  -0.316888 3.45637 -4.39249
LeftUpLeg  -13.9103 11.4408 11.7534
LeftLeg  -2.12175 6.28455 -0.912158
LeftFoot  4.33332 2.28017 -16.6583
LeftToes  1.81866e-011 -6.13092e-011 2.52013e-011
141
root  -39.5209 37.965 8.70962 -39.4872 -77.0972 33.8202
RightUpLeg  -11.0401 -14.8168 -9.21557
RightLeg  41.1578 -4.26281 -4.272
RightFoot  -22.5613 -0.303705 -1.53895
RightToes  -1.81608e-008 0 -3.6325e-017
Spine  11.9971 -2.50108 -1.85472
Spine1  1.53613 -3.3165 2.51781
HEad  6.26322 -6.48713 -6.06738
LeftShoulder1  -0.71752 5.40364 -31.5982
LeftArm  -11.0133 8.14877 -34.5491
LeftForeArm  18.1773 -15.2634 -4.14952
LeftHand  -0.0304692 5.19208 3.36053
RightShoulder  -0.903051 -6.22342 26.6214
RightArm  17.7478 -0.618421 45.4483
RightForeArm  6.24674 19.8926 4.6532
RightHand  -0.223035 2.82556 -3.38048
LeftUpLeg  -14.8012 11.3756 11.6047
LeftLeg  -1.67928 6.59409 -0.877572
LeftFoot  4.43653 2.25948 -16.4072
LeftToes  1.81866e-011 -6.13092e-011 2.52013e-011
142
root  -39.8784 37.7525 8.71909 -42.8585 -78.4581 36.3273
RightUpLeg  -10.2672 -13.8531 -8.9283
RightLeg  42.3991 -3.89191 -4.0917
RightFoot  -23.9192 -0.333107 -1.55111
RightToes  -1.81608e-008 0 -3.6325e-017
Spine  12.8177 -2.38624 -1.40233
Spine1  1.85573 -3.14196 2.29436
HEad  6.01082 -5.75593 -6.00051
LeftShoulder1  -0.807874 5.61325 -32.1416
LeftArm  -11.2904 8.20825 -34.3405
LeftForeArm  18.1982 -13.9638 -4.26598
LeftHand  -0.0221547 5.54754 3.83331
RightShoulder  -0.857542 -6.06749 26.8457
RightArm  19.8711 -1.72374 45.8063
RightForeArm  6.17815 19.5038 4.83828
RightHand  -0.227656 2.78041 -3.45337
LeftUpLeg  -15.7058 11.3847 11.5723
LeftLeg  -1.70486 6.97375 -0.890191
LeftFoot  4.51146 2.22028 -16.0557
LeftToes  1.81866e-011 -6.13092e-011 2.52013e-011
143
root  -40.2106 37.5192 8.79008 -47.7404 -79.6863 40.3473
RightUpLeg  -9.61138 -13.1982 -9.03835
RightLeg  43.8739 -3.21286 -3.61043
RightFoot  -25.2735 -0.368982 -1.61842
RightToes  -1.81608e-008 0 -3.6325e-017
Spine  13.8948 -2.35047 -0.66587
Spine1  2.11749 -2.88073 1.36338
HEad  6.08722 -4.65577 -6.32545
LeftShoulder1  -0.770335 5.52405 -31.9713
LeftArm  -11.4305 8.19588 -34.6532
LeftForeArm  18.2812 -12.2202 -4.44633
LeftHand  -0.0140954 5.98342 2.79823
RightShoulder  -0.91222 -6.17331 27.5993
RightArm  22.6253 -2.35653 45.3222
RightForeArm  4.96924 18.9051 5.20286
RightHand  -0.265827 3.84422 -3.60192
LeftUpLeg  -16.4137 11.3019 11.4288
LeftLeg  -1.91719 7.43506 -0.958157
LeftFoot  4.77866 2.24391 -15.9673
LeftToes  1.81866e-011 -6.13092e-011 2.52013e-011
144
root  -40.5596 37.2734 8.89826 -54.6659 -80.9433 46.3827
RightUpLeg  -8.94254 -11.8899 -9.11405
RightLeg  45.3806 -2.85334 -3.41195
RightFoot  -26.6947 -0.37528 -1.44536
RightToes  -1.81608e-008 0 -3.6325e-017
Spine  15.1746 -2.18241 -0.396963
Spine1  2.60159 -2.65397 1.15103
HEad  5.5122 -3.89027 -6.69424
LeftShoulder1  -0.764603 5.51431 -31.8709
LeftArm  -11.6022 8.00935 -35.3238
LeftForeArm  18.745 -10.3813 -4.5707
LeftHand  -0.0232294 5.62141 2.49561
RightShoulder  -0.914889 -6.16426 27.816
RightArm  24.1185 -3.08175 44.9306
RightForeArm  5.4861 18.2043 5.53446
RightHand  -0.2476 3.17131 -3.60075
LeftUpLeg  -16.7859 11.3919 11.3511
LeftLeg  -2.41918 7.87065 -1.19913
LeftFoot  5.20411 2.23349 -15.4998
LeftToes  1.81866e-011 -6.13092e-011 2.52013e-011
145
root  -40.9276 36.9934 9.05854 -60.837 -82.2211 52.0002
RightUpLeg  -8.59122 -10.8209 -8.88494
RightLeg  46.9166 -2.49777 -3.18552
RightFoot  -28.2242 -0.350841 -1.07073
RightToes  -1.81608e-008 0 -3.6325e-017
Spine  16.2887 -2.37733 0.556865
Spine1  2.9708 -2.57836 0.248401
HEad  4.7988 -2.84722 -6.52054
LeftShoulder1  -0.773123 5.52713 -32.0535
LeftArm  -11.7341 7.65589 -35.6029
LeftForeArm  18.3702 -8.83593 -4.53198
LeftHand  -0.00753277 6.59442 2.46709
RightShoulder  -0.904944 -6.10588 28.1964
RightArm  24.1481 -3.54727 44.6106
RightForeArm  6.33215 16.7481 6.10688
RightHand  -0.225659 2.43697 -3.55058
LeftUpLeg  -17.8537 11.6061 11.4876
LeftLeg  -2.12058 7.98954 -1.3067
LeftFoot  5.13074 2.20636 -15.382
LeftToes  1.81866e-011 -6.13092e-011 2.52013e-011
146
root  -41.3315 36.7062 9.2714 -70.3459 -83.3448 60.6999
RightUpLeg  -7.8844 -9.94069 -9.00071
RightLeg  48.4584 -1.89574 -2.63726
RightFoot  -29.7376 -0.350144 -0.916266
RightToes  -1.81608e-008 0 -3.6325e-017
Spine  17.4333 -2.38264 0.770214
Spine1  3.90523 -2.61631 0.464978
HEad  3.70567 -1.68662 -6.98963
LeftShoulder1  -0.761244 5.46873 -32.582
LeftArm  -11.914 6.90563 -36.0888
LeftForeArm  18.0067 -7.19576 -4.32525
LeftHand  -0.00751881 6.37359 2.77834
RightShoulder  -0.856372 -5.99722 27.7529
RightArm  23.0192 -3.9064 44.5378
RightForeArm  7.26277 15.444 6.54969
RightHand  -0.196418 2.81493 -2.98623
LeftUpLeg  -18.3568 11.8595 11.6561
LeftLeg  -1.81721 8.52519 -1.4264
LeftFoot  5.25156 2.21333 -15.3267
LeftToes  1.81866e-011 -6.13092e-011 2.52013e-011
147
root  -41.7682 36.4515 9.48842 -85.049 -84.1239 74.9311
RightUpLeg  -7.4637 -8.71396 -9.18749
RightLeg  49.8011 -1.45032 -2.19456
RightFoot  -31.094 -0.319614 -0.620464
RightToes  -1.81608e-008 0 -3.6325e-017
Spine  18.4271 -2.43573 0.783859
Spine1  4.8234 -2.57463 0.0132381
HEad  2.43694 -0.155786 -7.0427
LeftShoulder1  -0.731915 5.40176 -32.3922
LeftArm  -11.5435 6.45495 -36.611
LeftForeArm  17.9511 -6.17092 -4.39596
LeftHand  -0.0185312 6.2469 1.71493
RightShoulder  -0.84413 -5.95033 27.9048
RightArm  22.1328 -3.73965 44.3015
RightForeArm  7.56927 14.2043 7.01929
RightHand  -0.277633 2.82614 -4.14491
LeftUpLeg  -18.5134 11.8219 11.7118
LeftLeg  -2.3031 9.52077 -1.38255
LeftFoot  6.17494 2.21812 -14.5771
LeftToes  1.81866e-011 -6.13092e-011 2.52013e-011
148
root  -42.2693 36.2223 9.75731 -102.618 -84.5027 92.4252
RightUpLeg  -7.27245 -7.70711 -9.43658
RightLeg  50.9095 -0.865597 -1.51186
RightFoot  -32.3303 -0.290778 -0.382709
RightToes  -1.81608e-008 0 -3.6325e-017
Spine  18.8674 -2.62551 1.11682
Spine1  5.88391 -2.48716 -1.03053
HEad  1.19845 1.24685 -6.91082
LeftShoulder1  -0.629722 5.17167 -31.6095
LeftArm  -12.0772 6.2167 -37.7137
LeftForeArm  17.5324 -5.56856 -4.07428
LeftHand  -0.0123126 6.43331 2.5607
RightShoulder  -0.829111 -5.88532 28.2098
RightArm  21.2627 -3.7294 44.0952
RightForeArm  8.34514 14.0055 6.94923
RightHand  -0.244788 2.56362 -3.78404
LeftUpLeg  -18.8597 11.8927 11.8104
LeftLeg  -2.42073 10.533 -1.37252
LeftFoot  6.87956 2.22043 -14.0477
LeftToes  1.81866e-011 -6.13092e-011 2.52013e-011
149
root  -42.8756 36.0418 10.0476 -122.558 -84.4796 112.302
RightUpLeg  -6.669 -6.33308 -9.42636
RightLeg  51.4276 -0.428464 -0.949745
RightFoot  -33.5433 -0.234649 -0.0310795
RightToes  -1.81608e-008 0 -3.6325e-017
Spine  19.4337 -2.7631 1.45662
Spine1  6.62493 -2.34954 -1.97012
HEad  -0.0835104 2.63922 -6.75386
LeftShoulder1  -0.595979 5.09621 -31.2805
LeftArm  -11.6436 5.70024 -37.8543
LeftForeArm  16.4331 -4.98419 -4.27935
LeftHand  -0.0256935 5.26775 4.24646
RightShoulder  -0.85404 -5.92075 28.7289
RightArm  20.6803 -3.16221 43.5521
RightForeArm  8.0954 13.6217 7.01859
RightHand  -0.245251 3.12856 -3.57051
LeftUpLeg  -18.9351 12.6275 12.3714
LeftLeg  -1.90235 10.4809 -1.65982
LeftFoot  7.76942 2.2126 -13.3862
LeftToes  1.81866e-011 -6.13092e-011 2.52013e-011
